<svg xmlns="http://www.w3.org/2000/svg" width="100" height="40" viewBox="0 0 100 40">
  <g id="logo_tabacariadacasa" transform="translate(-2.39 -11.75)">
    <g id="Grupo_4" data-name="Grupo 4" transform="translate(46.145 11.75)">
      <path id="Caminho_20" data-name="Caminho 20" d="M47.33,14.19a.653.653,0,0,0-.61-.2c-.26.04-.4.03-.82.46a1.21,1.21,0,0,0-.46.79.939.939,0,0,0,.2.68l8.41,7.79c.14.14.31.1.71-.3.32-.32.36-.49.22-.63Z" transform="translate(-43.51 -11.75)" fill="#936d3b"/>
      <path id="Caminho_21" data-name="Caminho 21" d="M44.09,22.77c-.14.14-.11.31.22.63.4.4.57.44.71.3l8.41-7.79a.91.91,0,0,0,.2-.68,1.165,1.165,0,0,0-.46-.79c-.43-.43-.56-.42-.82-.46a.7.7,0,0,0-.61.2Z" transform="translate(-43.51 -11.75)" fill="#936d3b"/>
      <g id="Grupo_2" data-name="Grupo 2" transform="translate(9.08)">
        <path id="Caminho_22" data-name="Caminho 22" d="M54.21,14.73a.835.835,0,0,0,.56-.36.655.655,0,0,0,.09-.42c-.02-.13.04-.52.12-.54,0,0,.13-.13.53-.07a.626.626,0,0,0-.46-.13.429.429,0,0,0-.32.23.913.913,0,0,0-.07.53C54.65,13.98,54.82,14.41,54.21,14.73Z" transform="translate(-52.59 -11.75)" fill="#797879"/>
        <path id="Caminho_23" data-name="Caminho 23" d="M53.59,13.89a1.166,1.166,0,0,0,.79-.5.97.97,0,0,0,.12-.59c-.03-.18.06-.73.17-.76,0,0,.18-.18.75-.1a.868.868,0,0,0-.65-.18.609.609,0,0,0-.46.33,1.41,1.41,0,0,0-.11.75C54.21,12.83,54.45,13.44,53.59,13.89Z" transform="translate(-52.59 -11.75)" fill="#797879"/>
        <path id="Caminho_24" data-name="Caminho 24" d="M52.59,13.67a.835.835,0,0,0,.56-.36.655.655,0,0,0,.09-.42c-.02-.13.04-.52.12-.54,0,0,.13-.13.53-.07a.626.626,0,0,0-.46-.13.429.429,0,0,0-.32.23.913.913,0,0,0-.07.53C53.04,12.93,53.21,13.35,52.59,13.67Z" transform="translate(-52.59 -11.75)" fill="#797879"/>
      </g>
      <g id="Grupo_3" data-name="Grupo 3" transform="translate(0 0.13)">
        <path id="Caminho_25" data-name="Caminho 25" d="M44.81,14.86a.835.835,0,0,1-.56-.36.655.655,0,0,1-.09-.42c.02-.13-.04-.52-.12-.54,0,0-.13-.13-.53-.07a.626.626,0,0,1,.46-.13.429.429,0,0,1,.32.23.913.913,0,0,1,.07.53C44.37,14.11,44.2,14.54,44.81,14.86Z" transform="translate(-43.51 -11.88)" fill="#797879"/>
        <path id="Caminho_26" data-name="Caminho 26" d="M45.43,14.02a1.166,1.166,0,0,1-.79-.5.97.97,0,0,1-.12-.59c.03-.18-.06-.73-.17-.76,0,0-.18-.18-.75-.1a.868.868,0,0,1,.65-.18.609.609,0,0,1,.46.33,1.41,1.41,0,0,1,.11.75C44.81,12.96,44.57,13.57,45.43,14.02Z" transform="translate(-43.51 -11.88)" fill="#797879"/>
        <path id="Caminho_27" data-name="Caminho 27" d="M46.43,13.8a.835.835,0,0,1-.56-.36.655.655,0,0,1-.09-.42c.02-.13-.04-.52-.12-.54,0,0-.13-.13-.53-.07a.626.626,0,0,1,.46-.13.429.429,0,0,1,.32.23.913.913,0,0,1,.07.53C45.99,13.06,45.82,13.48,46.43,13.8Z" transform="translate(-43.51 -11.88)" fill="#797879"/>
      </g>
    </g>
    <g id="Grupo_5" data-name="Grupo 5" transform="translate(2.39 42.59)">
      <path id="Caminho_28" data-name="Caminho 28" d="M15.14,42.47a4.586,4.586,0,0,1-4.58,4.58H2.39V37.89h8.17A4.579,4.579,0,0,1,15.14,42.47Zm-.79,0a2.189,2.189,0,0,0-2.19-2.19H3.19v4.38h8.97A2.2,2.2,0,0,0,14.35,42.47Z" transform="translate(-2.39 -37.89)" fill="#936d3b"/>
      <path id="Caminho_29" data-name="Caminho 29" d="M29.21,47.05h-1l-.83-2.39H17.49l-.83,2.39h-1l3.19-9.16h7.17Zm-2.66-4.78-.69-1.99H19.02l-.69,1.99Z" transform="translate(-2.39 -37.89)" fill="#936d3b"/>
      <path id="Caminho_30" data-name="Caminho 30" d="M42.17,42.47a2.189,2.189,0,0,0,2.19,2.19h9.76v2.39H45.95a4.58,4.58,0,1,1,0-9.16h8.17v2.39H44.36A2.2,2.2,0,0,0,42.17,42.47Z" transform="translate(0.131 -37.89)" fill="#936d3b"/>
      <path id="Caminho_31" data-name="Caminho 31" d="M68.98,47.05h-1l-.83-2.39H57.26l-.83,2.39h-1l3.19-9.16h7.17Zm-2.66-4.78-.69-1.99H58.79l-.69,1.99Z" transform="translate(1.074 -37.89)" fill="#936d3b"/>
      <path id="Caminho_32" data-name="Caminho 32" d="M82.24,40.28H71.88c-1,0-.63.77-.36,1.02.76.69,2.47.76,4.76.77,2.79,0,5.96.01,5.96,2.59v2.39H70.28V44.66H80.64c1,0,.68-.72.45-.96-.71-.76-2.45-.83-4.81-.84-2.79,0-5.96-.01-5.99-2.58h0V37.89H82.24Z" transform="translate(1.959 -37.89)" fill="#936d3b"/>
      <path id="Caminho_33" data-name="Caminho 33" d="M97.09,47.05h-1l-.83-2.39H85.37l-.83,2.39h-1l3.19-9.16H93.9Zm-2.66-4.78-.69-1.99H86.9l-.69,1.99Z" transform="translate(2.91 -37.89)" fill="#936d3b"/>
    </g>
    <g id="Grupo_7" data-name="Grupo 7" transform="translate(28.856 30.68)">
      <g id="Grupo_6" data-name="Grupo 6">
        <path id="Caminho_34" data-name="Caminho 34" d="M31.31,29.75c.05.28.08.42.13.7-.86.16-1.29.24-2.14.42.33,1.59.5,2.39.83,3.98-.26.06-.39.08-.66.14-.34-1.59-.52-2.39-.86-3.98-.86.19-1.29.28-2.14.49-.07-.28-.1-.42-.17-.69C28.3,30.34,29.31,30.13,31.31,29.75Z" transform="translate(-26.3 -27.939)"/>
        <path id="Caminho_35" data-name="Caminho 35" d="M36.98,33.69c-.39-.61-.59-.91-1-1.51-.79.11-1.18.17-1.97.3-.2.69-.3,1.04-.5,1.74-.3.05-.45.08-.74.13.56-2.04.86-3.06,1.51-5.1.2-.03.3-.05.5-.08,1.23,1.75,1.82,2.64,2.95,4.42C37.42,33.63,37.28,33.65,36.98,33.69Zm-2.75-1.97,1.31-.2c-.34-.51-.52-.76-.86-1.26C34.5,30.84,34.41,31.13,34.23,31.72Z" transform="translate(-26.3 -27.939)"/>
        <path id="Caminho_36" data-name="Caminho 36" d="M41.64,30.68a1.079,1.079,0,0,1,.44.46,1.829,1.829,0,0,1,.16.62,1.45,1.45,0,0,1-.26,1.02,1.26,1.26,0,0,1-.95.46c-1.08.1-1.62.15-2.69.28-.23-1.9-.34-2.85-.56-4.75,1.11-.13,1.67-.19,2.78-.29a1.23,1.23,0,0,1,.55.06,1.131,1.131,0,0,1,.41.25,1.2,1.2,0,0,1,.26.4,2.031,2.031,0,0,1,.12.5,2.3,2.3,0,0,1-.03.52A1.373,1.373,0,0,1,41.64,30.68Zm-.93-.24a.464.464,0,0,0,.25-.08.41.41,0,0,0,.16-.16.476.476,0,0,0,.07-.21,1.045,1.045,0,0,0,0-.25.726.726,0,0,0-.15-.42.471.471,0,0,0-.43-.13c-.82.07-1.23.12-2.05.21.06.5.08.74.14,1.24C39.51,30.55,39.91,30.51,40.71,30.44Zm-1.77,2.29c.8-.09,1.19-.13,1.99-.2a.754.754,0,0,0,.51-.2.665.665,0,0,0,.12-.52.639.639,0,0,0-.24-.51.854.854,0,0,0-.58-.12c-.79.07-1.18.11-1.96.2C38.84,31.91,38.87,32.18,38.94,32.73Z" transform="translate(-26.3 -27.939)"/>
        <path id="Caminho_37" data-name="Caminho 37" d="M47.21,32.89c-.33-.64-.49-.97-.83-1.61-.8.03-1.19.04-1.99.08-.28.67-.41,1-.68,1.67l-.75.05c.77-1.97,1.18-2.95,2.04-4.91.2-.01.3-.01.5-.02,1.03,1.87,1.52,2.82,2.45,4.72C47.66,32.88,47.51,32.88,47.21,32.89ZM44.7,30.63c.53-.03.8-.04,1.33-.06-.28-.54-.43-.81-.72-1.35C45.06,29.79,44.94,30.07,44.7,30.63Z" transform="translate(-26.3 -27.939)"/>
        <path id="Caminho_38" data-name="Caminho 38" d="M50.96,28.66a1.73,1.73,0,0,0-.73.14,1.382,1.382,0,0,0-.53.39,1.592,1.592,0,0,0-.32.57,2.157,2.157,0,0,0,0,1.36,1.614,1.614,0,0,0,.31.56,1.649,1.649,0,0,0,.51.39,1.537,1.537,0,0,0,.7.15,1.987,1.987,0,0,0,.66-.1,1.623,1.623,0,0,0,.53-.3,1.815,1.815,0,0,0,.4-.47,3.7,3.7,0,0,0,.29-.6c.22.21.33.31.54.52a2.154,2.154,0,0,1-.17.34c-.07.11-.14.22-.22.33a3.876,3.876,0,0,1-.26.31,1.622,1.622,0,0,1-.28.25,2.333,2.333,0,0,1-1.52.46,2.245,2.245,0,0,1-2.13-1.55,2.826,2.826,0,0,1-.17-.97,3.108,3.108,0,0,1,.15-.96,2.357,2.357,0,0,1,.46-.8,2.252,2.252,0,0,1,1.78-.74,2.735,2.735,0,0,1,.87.14,2.286,2.286,0,0,1,.97.65,3.919,3.919,0,0,1,.25.32,1.752,1.752,0,0,1,.2.35,1.888,1.888,0,0,1,.13.35c-.23.19-.35.29-.58.49a2.209,2.209,0,0,0-.14-.41,2.648,2.648,0,0,0-.23-.39,3.175,3.175,0,0,0-.3-.34,2.114,2.114,0,0,0-.35-.26A1.949,1.949,0,0,0,50.96,28.66Z" transform="translate(-26.3 -27.939)"/>
        <path id="Caminho_39" data-name="Caminho 39" d="M58.11,33.26c-.25-.68-.38-1.02-.64-1.69-.79-.07-1.19-.1-1.99-.15-.35.63-.53.95-.87,1.58-.3-.02-.45-.02-.75-.04.99-1.87,1.51-2.8,2.6-4.64.2.01.3.02.5.04.8,1.98,1.18,2.97,1.89,4.97C58.56,33.3,58.41,33.29,58.11,33.26Zm-2.23-2.53c.53.04.79.05,1.32.1-.22-.57-.33-.85-.56-1.42C56.33,29.93,56.18,30.2,55.88,30.73Z" transform="translate(-26.3 -27.939)"/>
        <path id="Caminho_40" data-name="Caminho 40" d="M63.4,33.25a.3.3,0,0,0,.24-.07.787.787,0,0,0,.18-.22,1.39,1.39,0,0,0,.12-.28,2.068,2.068,0,0,0,.06-.24c.03-.17.04-.26.07-.43.27.04.41.06.68.11-.03.17-.04.25-.07.42a2.742,2.742,0,0,1-.15.52,2.149,2.149,0,0,1-.28.49,1.225,1.225,0,0,1-.41.34.907.907,0,0,1-.55.07.919.919,0,0,1-.54-.26,1.9,1.9,0,0,1-.35-.49c-.04-.09-.09-.19-.13-.3s-.1-.23-.15-.37a3.341,3.341,0,0,0-.25-.55.836.836,0,0,0-.18-.23.552.552,0,0,0-.27-.11c-.36-.05-.55-.07-.91-.11-.09.78-.14,1.17-.23,1.95-.27-.03-.4-.05-.67-.08.21-1.9.31-2.86.52-4.76,1.23.13,1.85.21,3.08.38a1.376,1.376,0,0,1,.56.19,1.272,1.272,0,0,1,.37.36,1.32,1.32,0,0,1,.19.49,1.759,1.759,0,0,1-.17,1.08,1.258,1.258,0,0,1-.32.4,1.189,1.189,0,0,1-.46.24,1.337,1.337,0,0,1-.57.03c-.11-.02-.17-.02-.28-.04.03.07.06.14.1.22s.07.17.11.26c.12.28.2.48.26.61a1.576,1.576,0,0,0,.15.24A.425.425,0,0,0,63.4,33.25Zm-2.8-2.43c.93.11,1.39.17,2.32.3a.6.6,0,0,0,.5-.12.7.7,0,0,0,.23-.46.772.772,0,0,0-.08-.51.573.573,0,0,0-.46-.27c-.94-.13-1.41-.19-2.35-.3C60.69,30,60.66,30.27,60.6,30.82Z" transform="translate(-26.3 -27.939)"/>
        <path id="Caminho_41" data-name="Caminho 41" d="M65.18,34.19c.32-1.89.48-2.83.8-4.72.28.05.42.07.69.12-.33,1.88-.5,2.83-.83,4.71C65.58,34.25,65.44,34.23,65.18,34.19Z" transform="translate(-26.3 -27.939)"/>
        <path id="Caminho_42" data-name="Caminho 42" d="M70.71,35.3c-.16-.71-.24-1.06-.41-1.76-.78-.17-1.17-.26-1.96-.41-.44.58-.65.87-1.08,1.45-.3-.06-.45-.09-.74-.14,1.24-1.72,1.88-2.57,3.21-4.24.2.04.3.06.49.1.53,2.07.78,3.11,1.21,5.18C71.15,35.4,71.01,35.36,70.71,35.3Zm-1.88-2.82c.52.11.78.16,1.3.28-.14-.59-.22-.89-.37-1.49C69.39,31.75,69.2,31.99,68.83,32.48Z" transform="translate(-26.3 -27.939)"/>
      </g>
    </g>
  </g>
</svg>
